<?xml version="1.0" standalone="no"?>
<!DOCTYPE svg PUBLIC "-//W3C//DTD SVG 20010904//EN"
 "http://www.w3.org/TR/2001/REC-SVG-20010904/DTD/svg10.dtd">
<svg version="1.0" xmlns="http://www.w3.org/2000/svg"
 width="1500.000000pt" height="1500.000000pt" viewBox="0 0 1500.000000 1500.000000"
 preserveAspectRatio="xMidYMid meet">

<g transform="translate(0.000000,1500.000000) scale(0.100000,-0.100000)"
fill="#000000" stroke="none">
<path d="M6206 13865 c-52 -18 -84 -43 -123 -94 -33 -42 -50 -98 -39 -126 4
-10 19 -15 48 -15 52 0 60 6 77 46 23 58 64 87 128 91 88 6 146 -38 160 -120
12 -75 -15 -107 -360 -427 -38 -36 -49 -54 -54 -85 -8 -66 -8 -66 276 -63 276
3 271 2 271 64 0 52 -13 56 -183 52 -86 -2 -158 0 -161 3 -12 12 7 39 48 69
22 17 82 71 133 120 105 103 145 171 151 259 7 101 -65 199 -169 230 -50 15
-156 13 -203 -4z"/>
<path d="M7003 13866 c-133 -44 -234 -149 -269 -281 -53 -196 37 -407 210
-493 68 -34 174 -48 248 -33 212 43 338 194 338 407 0 168 -82 305 -227 376
-56 27 -76 32 -161 35 -64 2 -111 -2 -139 -11z m232 -120 c73 -33 109 -68 140
-133 38 -78 40 -202 6 -278 -27 -62 -83 -121 -136 -146 -63 -29 -177 -26 -243
7 -164 82 -213 316 -96 468 74 97 220 133 329 82z"/>
<path d="M7839 13871 c-72 -23 -131 -75 -160 -140 -34 -77 -24 -101 41 -101
39 0 60 9 60 27 0 52 78 113 145 113 87 0 145 -53 145 -131 0 -87 1 -86 -262
-333 -140 -132 -148 -141 -148 -177 0 -28 5 -41 19 -49 22 -11 450 -12 491 -1
21 6 25 13 28 54 3 43 1 47 -24 53 -15 4 -79 4 -143 1 -120 -6 -171 -1 -171
15 0 5 21 28 48 51 104 91 240 234 261 274 16 33 21 60 21 122 0 73 -3 82 -33
126 -47 69 -110 99 -212 102 -44 1 -92 -1 -106 -6z"/>
<path d="M8752 13848 c-10 -13 -98 -143 -309 -457 -102 -151 -123 -190 -121
-215 l3 -31 223 -3 222 -2 0 -103 c0 -128 11 -150 73 -145 l42 3 5 120 5 120
50 5 50 5 0 50 0 50 -40 3 c-22 2 -45 8 -52 14 -10 8 -13 80 -13 304 l0 294
-64 0 c-39 0 -68 -5 -74 -12z m19 -580 c-3 -16 -18 -18 -137 -18 -73 0 -135 4
-139 9 -3 5 14 38 38 73 24 35 86 126 138 203 l94 140 5 -195 c3 -107 3 -203
1 -212z"/>
<path d="M11551 12723 c-104 -52 -117 -224 -21 -294 14 -10 50 -22 80 -27 54
-7 55 -8 52 -37 -6 -49 -46 -84 -111 -94 -29 -5 -36 -12 -44 -40 -13 -54 -1
-98 29 -105 37 -10 126 11 166 37 41 28 94 105 110 160 7 23 12 92 12 152 1
101 -2 114 -27 162 -37 72 -85 103 -157 103 -30 0 -70 -8 -89 -17z"/>
<path d="M3162 12708 c-14 -14 -17 -225 -3 -247 8 -12 44 -15 188 -15 l178 -1
5 -555 5 -555 145 0 145 0 3 544 c1 376 6 548 13 557 8 10 56 14 183 16 l171
3 0 130 0 130 -510 3 c-389 2 -514 -1 -523 -10z"/>
<path d="M8015 12708 c-3 -7 -4 -319 -3 -693 l3 -680 115 -3 c63 -1 125 0 138
3 l22 5 0 684 c0 614 -2 684 -16 690 -9 3 -69 6 -135 6 -87 0 -121 -3 -124
-12z"/>
<path d="M8455 12708 c-3 -7 -4 -319 -3 -693 l3 -680 135 0 135 0 0 690 0 690
-133 3 c-100 2 -134 -1 -137 -10z"/>
<path d="M5166 12330 c-175 -31 -310 -145 -377 -318 -31 -80 -38 -248 -14
-335 55 -198 199 -339 378 -368 135 -23 289 18 351 92 14 16 29 29 35 29 5 0
11 -21 13 -47 l3 -48 105 -3 c58 -2 115 0 128 3 l22 5 -2 483 -3 482 -108 3
c-119 3 -147 -5 -147 -43 0 -14 -2 -25 -5 -25 -2 0 -26 14 -52 30 -85 54 -221
79 -327 60z m242 -279 c186 -95 186 -367 0 -468 -50 -27 -180 -25 -233 4 -88
47 -135 128 -135 233 0 99 36 168 113 216 73 47 180 53 255 15z"/>
<path d="M7290 12326 c-196 -35 -358 -191 -399 -384 -16 -75 -14 -194 5 -266
67 -259 292 -402 578 -367 169 20 287 102 357 247 57 118 57 118 -76 122 -116
3 -155 -2 -155 -19 0 -22 -55 -81 -93 -101 -89 -45 -198 -31 -274 35 -40 35
-73 95 -73 132 l0 25 323 2 c177 1 338 3 357 3 l35 1 3 66 c12 266 -152 472
-402 507 -91 13 -101 13 -186 -3z m235 -241 c52 -32 91 -85 81 -110 -5 -13
-36 -15 -213 -13 -192 3 -208 4 -211 21 -4 22 73 100 121 122 20 9 57 14 103
12 59 -2 79 -7 119 -32z"/>
<path d="M9278 12330 c-79 -13 -145 -39 -208 -81 -94 -63 -142 -126 -196 -254
-21 -52 -30 -222 -15 -296 15 -73 69 -183 115 -235 74 -86 202 -148 328 -160
164 -14 313 32 411 129 59 57 117 165 117 216 l0 31 -124 0 -124 0 -31 -50
c-89 -144 -321 -126 -402 31 -27 53 -25 89 4 89 12 0 173 2 357 3 l335 2 -1
90 c-1 99 -28 209 -70 280 -63 108 -186 184 -328 204 -86 12 -100 12 -168 1z
m199 -235 c55 -28 106 -85 101 -113 -3 -15 -23 -17 -193 -20 -200 -3 -235 0
-235 21 0 24 69 94 112 116 62 30 149 29 215 -4z"/>
<path d="M10930 12326 c-88 -17 -130 -37 -185 -87 -71 -65 -90 -108 -90 -204
0 -94 20 -140 84 -198 47 -42 84 -59 201 -93 119 -34 137 -43 165 -76 32 -38
32 -73 -1 -103 -20 -19 -38 -25 -71 -25 -55 0 -85 20 -108 70 l-18 40 -135 0
-135 0 6 -55 c23 -224 290 -354 539 -264 161 59 253 239 204 402 -28 94 -96
152 -221 188 -145 41 -206 63 -219 78 -46 53 -11 111 69 111 46 0 54 -5 95
-60 17 -24 24 -25 132 -28 141 -4 149 1 123 80 -24 74 -40 101 -76 137 -44 44
-116 78 -190 91 -76 12 -85 12 -169 -4z"/>
<path d="M4150 12291 c-7 -14 -9 -172 -8 -488 l3 -468 135 0 135 0 5 310 c4
275 7 314 23 338 27 41 64 54 170 59 54 3 100 7 102 10 4 4 9 202 6 246 -1 15
-129 17 -184 1 -42 -11 -103 -60 -112 -90 -12 -36 -24 -19 -27 39 l-3 57 -117
3 c-108 2 -118 1 -128 -17z"/>
<path d="M5925 12301 c-3 -5 67 -225 154 -488 l160 -478 154 -3 c120 -2 157 0
165 11 20 24 323 950 314 959 -5 5 -71 7 -148 6 l-139 -3 -68 -235 c-37 -129
-76 -266 -86 -304 -9 -39 -22 -71 -28 -73 -5 -2 -18 25 -27 59 -9 35 -28 99
-41 143 -52 176 -93 322 -100 353 -12 58 -22 62 -170 62 -74 0 -136 -4 -140
-9z"/>
<path d="M9985 12298 c-3 -7 -4 -227 -3 -488 l3 -475 129 -3 c97 -2 131 1 138
10 4 7 8 143 8 301 0 314 4 339 56 374 21 13 54 19 133 23 l106 5 0 130 0 130
-67 3 c-101 4 -143 -11 -200 -71 l-48 -51 0 56 c0 42 -4 57 -16 62 -32 12
-234 7 -239 -6z"/>
<path d="M8138 10967 c-59 -44 -80 -88 -75 -154 10 -139 168 -212 274 -127
106 86 93 231 -27 295 -56 31 -120 25 -172 -14z"/>
<path d="M4955 10944 c-140 -34 -238 -88 -335 -184 -163 -163 -238 -404 -199
-640 58 -361 334 -600 692 -600 300 0 539 157 633 416 13 37 24 80 24 95 l0
29 -149 0 -149 0 -13 -37 c-39 -121 -142 -204 -277 -223 -217 -31 -406 98
-456 310 -44 184 3 362 125 474 79 74 155 101 274 100 79 -1 98 -4 156 -32 78
-37 142 -102 171 -173 l21 -49 143 0 c84 0 145 4 149 10 10 17 -23 129 -60
199 -110 209 -318 322 -588 320 -56 0 -129 -7 -162 -15z"/>
<path d="M5912 10932 c-10 -7 -12 -152 -10 -693 l3 -684 135 0 135 0 5 315 c6
356 6 358 83 407 32 20 54 26 97 26 69 0 112 -22 147 -74 34 -51 41 -123 41
-424 0 -121 1 -228 1 -238 1 -16 12 -17 134 -15 l132 3 0 380 0 380 -29 57
c-32 64 -99 132 -154 155 -124 52 -289 26 -396 -62 -24 -19 -46 -35 -49 -35
-4 0 -8 114 -9 253 l-3 252 -125 3 c-69 1 -131 -2 -138 -6z"/>
<path d="M10493 10853 c-33 -6 -28 -30 7 -38 l30 -7 0 -84 c0 -77 2 -84 20
-84 18 0 20 7 20 78 0 81 9 102 42 102 10 0 18 6 18 14 0 21 -73 31 -137 19z"/>
<path d="M10671 10846 c-14 -16 -3 -198 13 -208 18 -12 26 2 26 50 l1 47 21
-48 c28 -63 56 -62 75 2 20 70 33 73 33 8 0 -50 2 -57 20 -57 19 0 20 7 20
106 l0 105 -26 -3 c-23 -3 -30 -12 -50 -73 -13 -38 -24 -72 -24 -74 0 -2 -6 2
-14 8 -7 6 -16 26 -19 44 -8 49 -36 107 -51 107 -7 0 -19 -6 -25 -14z"/>
<path d="M7395 10549 c-172 -18 -303 -97 -391 -236 -51 -78 -65 -128 -71 -245
-9 -173 32 -286 145 -398 134 -133 332 -182 529 -131 313 81 467 421 328 726
-89 196 -304 310 -540 284z m134 -265 c174 -51 236 -281 115 -423 -108 -126
-329 -103 -407 42 -32 61 -32 203 1 264 28 54 78 94 144 115 67 21 82 22 147
2z"/>
<path d="M8844 10531 c-185 -53 -312 -199 -351 -405 -16 -82 -16 -92 1 -179
10 -51 33 -121 50 -156 58 -120 184 -219 322 -255 130 -33 310 -12 424 50 98
53 189 178 206 280 8 52 7 52 -150 50 l-119 -1 -32 -45 c-41 -60 -103 -91
-183 -91 -142 -1 -246 108 -245 256 0 87 25 146 81 197 58 53 131 74 204 59
64 -14 130 -57 150 -98 l13 -28 126 -5 c169 -7 163 -9 156 50 -17 146 -157
284 -328 325 -87 20 -247 18 -325 -4z"/>
<path d="M9920 10531 c-88 -28 -140 -60 -206 -123 -202 -193 -205 -544 -7
-744 99 -99 212 -144 363 -144 190 1 339 73 423 207 29 46 62 148 52 163 -4 6
-56 10 -125 10 l-119 0 -28 -42 c-60 -90 -165 -127 -271 -98 -57 15 -124 77
-147 135 -30 79 -49 74 347 77 l353 3 -1 100 c-1 235 -117 400 -323 457 -87
24 -235 24 -311 -1z m278 -225 c49 -25 102 -84 102 -113 0 -10 -49 -13 -221
-13 l-220 0 7 23 c16 49 69 96 141 123 52 20 129 11 191 -20z"/>
<path d="M8109 10519 c-5 -3 -8 -201 -7 -485 l3 -479 125 -3 c109 -2 126 0
137 15 10 13 13 118 12 462 -1 245 -4 457 -8 470 -6 23 -9 23 -130 25 -67 0
-127 -2 -132 -5z"/>
<path d="M7210 9214 c-822 -87 -1544 -495 -2037 -1149 -296 -393 -478 -832
-554 -1335 -29 -193 -32 -614 -6 -785 70 -447 180 -760 390 -1115 467 -788
1287 -1310 2203 -1405 564 -57 1140 53 1642 315 73 39 145 78 160 88 15 10 72
48 127 85 283 186 590 495 787 792 147 222 292 523 353 735 48 163 58 206 80
314 44 225 49 281 49 576 -1 264 -3 297 -28 444 -59 341 -154 626 -303 906
-421 791 -1177 1344 -2058 1504 -243 44 -561 56 -805 30z m545 -324 c61 -6
135 -15 165 -21 304 -58 454 -105 690 -216 373 -175 706 -450 966 -798 167
-223 282 -444 377 -725 171 -502 171 -1112 0 -1620 -98 -292 -216 -515 -404
-760 -151 -199 -299 -346 -504 -501 -300 -227 -685 -396 -1068 -470 -376 -72
-816 -50 -1187 57 -529 154 -1002 475 -1332 904 -531 692 -680 1584 -402 2415
14 44 30 85 33 90 4 6 16 33 26 60 49 138 201 407 309 550 413 546 961 884
1636 1010 180 33 485 44 695 25z"/>
<path d="M7410 7613 c-394 -15 -802 -142 -1123 -349 l-68 -44 -349 0 c-327 0
-350 -1 -350 -17 1 -10 66 -88 145 -173 80 -85 145 -158 145 -163 0 -4 -17
-26 -39 -50 -54 -58 -145 -187 -169 -239 -63 -135 -79 -187 -99 -335 -16 -116
-16 -130 0 -245 26 -181 73 -306 169 -445 127 -183 302 -314 512 -383 114 -37
195 -50 316 -50 221 0 419 66 600 201 l84 62 35 -40 c216 -239 268 -293 282
-293 13 0 161 154 301 313 17 19 19 19 93 -37 99 -75 181 -118 290 -154 115
-38 198 -52 316 -52 500 0 905 344 994 844 52 288 -43 605 -249 834 -31 35
-56 68 -54 72 2 5 23 30 48 57 173 186 240 262 240 277 0 14 -33 16 -346 16
l-346 0 -109 66 c-387 233 -816 343 -1269 327z m256 -332 c120 -10 240 -32
349 -63 39 -11 91 -26 117 -33 47 -14 98 -42 98 -54 0 -4 -33 -22 -74 -40
-298 -131 -559 -434 -626 -725 -12 -53 -25 -96 -29 -96 -5 0 -16 37 -26 82
-36 169 -117 315 -270 487 -73 82 -280 225 -381 262 -30 11 -54 24 -54 29 0
13 55 40 110 56 25 7 77 21 115 32 218 62 434 82 671 63z m-1006 -501 c128
-33 214 -83 311 -180 115 -115 170 -222 196 -384 17 -107 17 -110 -4 -215 -31
-149 -84 -251 -183 -350 -118 -119 -239 -179 -402 -201 -154 -21 -322 19 -454
106 -72 48 -183 168 -222 241 -98 184 -107 404 -25 597 35 84 135 212 205 264
173 128 383 173 578 122z m1987 5 c132 -34 228 -85 317 -166 214 -195 276
-523 151 -788 -165 -348 -588 -489 -925 -308 -201 107 -326 289 -360 523 -10
67 -9 95 4 173 49 284 233 488 506 561 83 22 231 25 307 5z"/>
<path d="M6424 6470 c-104 -21 -201 -98 -251 -199 -24 -49 -27 -68 -27 -151 0
-85 3 -101 27 -148 41 -78 97 -134 171 -170 57 -28 76 -32 145 -32 147 0 264
71 328 198 25 51 28 67 28 157 0 95 -2 103 -34 163 -78 145 -226 214 -387 182z"/>
<path d="M8412 6464 c-29 -7 -66 -21 -83 -30 -47 -24 -115 -96 -146 -156 -25
-48 -28 -63 -28 -158 0 -121 11 -150 92 -240 68 -76 146 -110 252 -110 146 0
253 64 321 192 83 156 32 355 -116 454 -91 60 -189 76 -292 48z"/>
<path d="M2644 8384 c38 -371 257 -995 459 -1309 126 -195 300 -380 465 -493
98 -67 206 -124 216 -115 15 16 -26 277 -73 462 -49 191 -119 383 -226 616
-114 248 -369 562 -605 746 -98 76 -219 159 -233 159 -6 0 -7 -26 -3 -66z"/>
<path d="M12271 8400 c-335 -231 -585 -515 -751 -855 -132 -269 -225 -554
-280 -860 -20 -110 -27 -230 -12 -223 4 2 25 12 47 22 151 68 395 278 529 456
163 215 302 501 415 850 89 276 167 660 134 660 -5 0 -42 -22 -82 -50z"/>
<path d="M3803 7823 c-11 -72 -8 -392 6 -523 51 -490 163 -799 385 -1060 67
-79 157 -153 170 -140 17 17 28 213 22 390 -17 484 -131 838 -375 1168 -62 84
-178 212 -192 212 -4 0 -11 -21 -16 -47z"/>
<path d="M11116 7810 c-206 -223 -360 -507 -430 -791 -36 -150 -64 -343 -71
-504 -7 -149 6 -400 22 -416 14 -14 113 70 180 153 68 82 137 187 177 266 140
278 226 740 213 1147 -5 165 -11 205 -27 205 -4 0 -33 -27 -64 -60z"/>
<path d="M2430 7126 c0 -26 39 -180 69 -271 66 -199 124 -339 221 -530 129
-254 223 -401 343 -540 98 -113 212 -220 294 -276 24 -16 62 -42 86 -58 58
-40 214 -117 262 -130 24 -6 43 -7 49 -1 24 24 -81 381 -176 600 -77 174 -218
429 -301 540 -192 259 -465 493 -741 638 -85 45 -106 50 -106 28z"/>
<path d="M12530 7131 c-14 -5 -76 -38 -138 -75 -280 -167 -526 -394 -704 -651
-83 -121 -188 -313 -263 -486 -84 -190 -189 -537 -177 -582 8 -29 62 -18 170
36 241 119 459 309 624 542 96 135 240 393 321 575 114 254 236 653 200 649
-5 0 -19 -4 -33 -8z"/>
<path d="M3600 6313 c0 -19 66 -220 97 -293 38 -94 148 -309 210 -413 173
-289 372 -495 602 -624 68 -38 213 -94 228 -89 26 11 11 74 -65 276 -98 260
-248 519 -413 711 -115 134 -345 307 -531 400 -106 53 -128 59 -128 32z"/>
<path d="M11264 6275 c-365 -191 -627 -462 -825 -855 -96 -191 -197 -471 -184
-510 6 -20 39 -27 49 -11 3 5 18 12 33 16 46 11 169 72 241 119 241 159 414
371 625 767 78 147 197 456 197 512 0 27 -23 21 -136 -38z"/>
<path d="M2180 5855 c0 -19 75 -154 143 -255 157 -234 335 -448 529 -636 280
-270 543 -422 863 -498 97 -24 210 -32 220 -17 4 7 -7 40 -25 74 -232 442
-602 846 -981 1071 -205 121 -502 234 -711 270 -31 6 -38 4 -38 -9z"/>
<path d="M12780 5864 c-206 -32 -570 -178 -775 -312 -196 -128 -426 -341 -592
-548 -162 -201 -365 -526 -347 -555 5 -8 29 -10 78 -6 148 12 356 76 536 167
366 185 840 687 1114 1182 25 46 34 79 19 77 -5 -1 -19 -3 -33 -5z"/>
<path d="M3770 5154 c0 -47 191 -336 338 -514 82 -99 275 -290 357 -354 207
-162 446 -266 671 -292 64 -8 65 -6 27 74 -144 307 -500 702 -790 876 -137 82
-341 167 -492 206 -96 24 -111 25 -111 4z"/>
<path d="M11185 5164 c-105 -22 -267 -77 -393 -134 -273 -124 -541 -357 -773
-670 -83 -112 -209 -329 -209 -360 0 -23 156 1 290 47 231 78 422 202 627 409
245 247 571 720 491 713 -7 -1 -22 -3 -33 -5z"/>
<path d="M2995 4324 c-60 -7 -114 -13 -120 -13 -5 -1 -16 -5 -23 -10 -43 -27
284 -258 598 -423 247 -130 485 -217 725 -264 125 -25 426 -25 545 0 117 24
150 35 150 51 0 20 -61 77 -177 164 -265 199 -635 381 -908 446 -38 9 -87 21
-109 26 -135 36 -480 47 -681 23z"/>
<path d="M11488 4325 c-320 -39 -638 -156 -966 -354 -190 -115 -392 -274 -392
-308 0 -14 40 -27 155 -49 113 -22 408 -25 505 -6 36 8 99 20 140 29 317 65
782 296 1126 558 87 67 111 92 98 105 -16 16 -271 40 -419 39 -77 -1 -188 -7
-247 -14z"/>
<path d="M5000 3873 c-52 -4 -80 -16 -80 -34 0 -18 287 -197 425 -264 257
-125 408 -165 627 -165 158 0 227 20 197 56 -14 17 -155 124 -163 124 -3 0
-25 13 -49 29 -97 66 -322 167 -452 203 -145 41 -364 63 -505 51z"/>
<path d="M9790 3874 c-208 -19 -401 -75 -592 -172 -198 -101 -391 -234 -375
-259 22 -35 277 -46 420 -18 130 26 343 105 465 172 153 84 362 219 377 243
11 18 -36 30 -141 34 -60 2 -129 2 -154 0z"/>
<path d="M4470 3440 c-132 -20 -319 -73 -435 -122 -104 -44 -227 -116 -222
-131 10 -30 460 -149 768 -202 346 -59 714 -60 974 0 84 19 240 72 278 93 53
31 36 48 -128 131 -145 73 -242 110 -400 156 -312 89 -586 114 -835 75z"/>
<path d="M10084 3445 c-203 -28 -363 -66 -553 -134 -154 -55 -391 -176 -391
-200 0 -25 165 -91 317 -126 245 -57 600 -59 923 -5 169 28 251 43 300 56 30
7 96 23 145 34 100 23 332 95 355 109 17 12 19 10 -50 53 -272 173 -701 260
-1046 213z"/>
<path d="M6522 3306 c-137 -27 -295 -86 -389 -146 -38 -24 -27 -35 55 -53 301
-65 556 -65 755 -1 87 29 217 106 217 129 0 17 -15 22 -150 51 -146 31 -379
41 -488 20z"/>
<path d="M8120 3310 c-141 -20 -280 -55 -280 -72 0 -35 191 -130 317 -158 111
-25 348 -27 491 -5 96 15 219 42 235 52 35 21 -176 126 -329 163 -101 25 -324
35 -434 20z"/>
<path d="M7440 3249 c-90 -36 -127 -146 -77 -233 28 -51 73 -77 134 -78 94 -2
154 55 161 151 3 46 0 62 -20 91 -48 71 -126 98 -198 69z"/>
<path d="M4731 2572 c-74 -40 -91 -136 -37 -207 29 -38 72 -51 133 -42 42 7
69 29 94 79 23 44 24 70 5 106 -39 74 -125 103 -195 64z"/>
<path d="M9146 2571 c-36 -24 -65 -75 -66 -114 0 -41 36 -104 70 -122 68 -35
157 -10 189 54 34 66 24 117 -33 170 -36 34 -119 40 -160 12z"/>
<path d="M3326 2544 c-9 -23 -7 -157 2 -171 6 -9 54 -13 162 -15 l155 -3 3
-491 2 -491 33 -5 c17 -2 66 -2 107 1 l75 6 5 490 5 490 158 3 158 3 -3 97 -3
97 -426 3 c-383 2 -427 1 -433 -14z"/>
<path d="M7837 2553 c-4 -3 -7 -89 -7 -190 0 -168 -5 -205 -25 -173 -18 29
-158 70 -240 70 -332 0 -553 -349 -409 -647 109 -228 372 -324 596 -217 74 36
87 35 88 -8 0 -20 6 -21 125 -18 47 1 83 7 87 13 4 7 8 271 8 588 0 517 -2
577 -16 583 -21 8 -199 8 -207 -1z m-141 -529 c180 -105 176 -345 -7 -440
-107 -55 -263 -2 -321 109 -29 54 -31 165 -6 218 42 87 126 138 226 139 51 0
73 -5 108 -26z"/>
<path d="M5407 2244 c-26 -8 -62 -24 -80 -34 -42 -26 -54 -25 -61 5 -6 25 -7
25 -116 25 l-110 0 2 -562 3 -563 108 -3 c82 -2 107 0 108 10 0 7 0 72 -1 143
-2 170 4 184 58 147 121 -83 327 -76 465 14 244 160 276 498 68 704 -62 61
-118 93 -201 115 -69 19 -181 18 -243 -1z m211 -213 c113 -58 171 -199 126
-307 -84 -205 -351 -218 -448 -22 -61 123 -8 270 119 329 55 25 154 25 203 0z"/>
<path d="M6403 2245 c-84 -23 -134 -53 -199 -120 -178 -182 -180 -460 -4 -636
93 -94 190 -133 325 -133 94 0 161 17 217 56 31 21 48 17 48 -12 0 -28 13 -32
117 -32 71 -1 97 3 104 13 12 19 12 842 0 854 -6 6 -55 9 -111 7 -96 -3 -102
-4 -112 -28 -6 -14 -16 -23 -22 -20 -111 50 -146 60 -226 63 -54 2 -104 -3
-137 -12z m231 -209 c47 -20 104 -73 128 -120 33 -63 31 -167 -5 -228 -32 -55
-76 -92 -136 -113 -91 -32 -174 -12 -247 59 -57 56 -74 97 -74 181 1 87 54
170 139 215 44 23 146 26 195 6z"/>
<path d="M9643 2241 c-123 -43 -183 -113 -191 -223 -11 -154 83 -231 358 -292
145 -32 124 -192 -24 -190 -67 0 -102 22 -128 80 l-19 45 -102 -3 c-98 -3
-102 -4 -105 -26 -6 -38 30 -122 71 -168 24 -27 64 -56 105 -76 62 -30 74 -32
172 -32 97 0 110 2 170 31 106 50 152 106 171 209 19 105 -22 195 -114 248
-23 13 -91 39 -152 56 -129 38 -159 52 -180 84 -52 79 108 144 182 74 14 -13
29 -33 34 -45 8 -22 14 -23 103 -23 55 0 98 4 101 10 13 20 -7 91 -38 138 -25
36 -48 55 -101 82 -63 31 -79 35 -165 37 -73 2 -109 -2 -148 -16z"/>
<path d="M10535 2246 c-136 -45 -230 -122 -289 -238 -61 -121 -61 -275 0 -405
32 -69 129 -168 195 -200 191 -94 408 -53 550 105 224 248 101 651 -225 738
-64 17 -178 17 -231 0z m223 -218 c77 -39 142 -140 142 -222 0 -125 -121 -246
-244 -246 -185 0 -308 199 -221 358 28 51 62 84 120 115 46 25 148 22 203 -5z"/>
<path d="M4700 2240 c-7 -4 -9 -163 -8 -441 l3 -434 95 3 c74 2 98 7 108 19 9
13 12 116 12 434 0 409 0 418 -20 424 -24 8 -176 3 -190 -5z"/>
<path d="M8152 2241 c-14 -9 -8 -28 138 -451 45 -129 92 -269 106 -312 39
-118 30 -112 180 -109 86 1 131 6 136 14 4 7 24 59 43 117 20 58 59 170 87
250 27 80 76 221 109 314 34 97 55 174 50 179 -4 4 -58 5 -120 1 l-111 -7 -36
-116 c-19 -64 -41 -134 -48 -156 -8 -22 -31 -94 -51 -160 -55 -177 -57 -180
-67 -161 -9 16 -77 224 -150 461 -22 72 -45 133 -52 137 -15 10 -198 10 -214
-1z"/>
<path d="M9188 2243 l-78 -4 -1 -52 c-7 -605 -8 -767 -1 -792 l9 -30 92 2 c51
1 99 4 107 7 12 4 14 75 14 435 l0 429 -22 6 c-13 3 -27 5 -33 4 -5 -1 -45 -4
-87 -5z"/>
<path d="M11614 2240 c-77 -5 -134 -26 -134 -50 0 -4 -8 -16 -17 -26 -17 -17
-18 -16 -23 27 l-5 44 -112 3 -113 3 0 -429 c0 -332 3 -432 13 -440 13 -10
188 -9 206 2 8 5 11 96 11 291 l0 283 27 32 c35 42 62 52 163 59 l85 6 3 96
c2 72 -1 98 -10 100 -7 2 -49 2 -94 -1z"/>
<path d="M4080 1816 c0 -383 2 -426 17 -441 14 -14 31 -16 105 -11 48 3 93 8
98 11 6 4 10 113 10 286 0 279 3 303 36 336 23 24 69 36 154 42 l85 6 3 55 c2
30 1 74 -3 98 l-6 42 -85 0 -85 0 -48 -45 c-47 -44 -49 -45 -55 -23 -3 13 -6
33 -6 46 0 21 -3 22 -110 22 l-110 0 0 -424z"/>
</g>
</svg>
