<?xml version="1.0" standalone="no"?>
<!DOCTYPE svg PUBLIC "-//W3C//DTD SVG 20010904//EN"
 "http://www.w3.org/TR/2001/REC-SVG-20010904/DTD/svg10.dtd">
<svg version="1.0" xmlns="http://www.w3.org/2000/svg"
 width="768.000000pt" height="817.000000pt" viewBox="0 0 768.000000 817.000000"
 preserveAspectRatio="xMidYMid meet">

<g transform="translate(0.000000,817.000000) scale(0.100000,-0.100000)"
fill="#000000" stroke="none">
<path d="M2240 7703 c-108 -40 -68 -200 45 -179 86 16 100 133 20 170 -35 17
-41 18 -65 9z"/>
<path d="M4824 7696 c-54 -24 -68 -102 -27 -148 42 -47 132 -26 152 35 26 78
-49 146 -125 113z"/>
<path d="M1260 7600 l0 -70 100 0 100 0 0 -295 0 -295 75 0 75 0 2 293 3 292
98 3 97 3 0 69 0 70 -275 0 -275 0 0 -70z"/>
<path d="M4030 7546 l0 -123 -47 23 c-115 59 -261 7 -325 -115 -52 -99 -34
-251 38 -325 55 -56 108 -80 184 -80 66 0 98 11 138 47 l22 20 0 -26 c0 -27 1
-27 70 -27 l70 0 0 365 0 365 -75 0 -75 0 0 -124z m-29 -255 c35 -34 39 -44
39 -87 0 -61 -16 -92 -59 -121 -67 -45 -160 -20 -192 51 -22 50 -23 76 -5 121
20 47 69 75 130 75 43 0 53 -4 87 -39z"/>
<path d="M2634 7451 c-23 -10 -45 -24 -48 -30 -12 -19 -26 -12 -26 14 0 24 -2
25 -65 25 l-65 0 0 -365 0 -365 70 0 70 0 0 126 0 125 30 -21 c124 -88 320
-10 366 146 40 137 -15 282 -129 341 -50 25 -154 28 -203 4z m157 -160 c35
-34 39 -44 39 -87 0 -61 -16 -92 -59 -121 -67 -45 -160 -20 -192 51 -22 50
-23 76 -5 121 20 47 69 75 130 75 43 0 53 -4 87 -39z"/>
<path d="M3164 7447 c-218 -104 -196 -446 34 -513 71 -21 139 -11 192 27 l40
29 0 -25 c0 -24 2 -25 70 -25 l70 0 -2 258 -3 257 -63 3 c-56 3 -64 1 -69 -17
-5 -19 -6 -19 -46 2 -64 33 -158 34 -223 4z m203 -137 c58 -35 78 -105 49
-175 -38 -91 -182 -99 -236 -13 -17 26 -20 45 -17 87 3 47 9 59 40 88 31 28
44 33 84 33 30 0 60 -7 80 -20z"/>
<path d="M5116 7456 c-81 -30 -123 -104 -105 -183 11 -52 55 -88 139 -114 86
-26 115 -47 106 -77 -14 -43 -89 -40 -106 3 -9 23 -14 25 -81 25 l-72 0 6 -39
c7 -52 32 -87 85 -118 37 -22 58 -27 111 -27 72 0 110 15 153 61 51 54 63 133
28 190 -25 42 -54 60 -135 83 -78 22 -97 35 -93 64 2 16 11 22 40 24 33 3 40
-1 50 -23 11 -24 15 -26 77 -23 l66 3 -3 30 c-5 42 -35 86 -72 109 -43 25
-143 31 -194 12z"/>
<path d="M5630 7461 c-53 -16 -109 -52 -138 -86 -84 -103 -80 -264 11 -362
164 -179 465 -79 484 161 14 170 -108 298 -281 295 -28 0 -62 -4 -76 -8z m150
-147 c38 -23 60 -65 60 -116 0 -55 -17 -86 -59 -115 -42 -28 -95 -30 -138 -3
-46 28 -66 72 -60 134 4 41 10 55 41 83 30 27 44 33 82 33 25 0 58 -7 74 -16z"/>
<path d="M1837 7453 c-4 -3 -7 -120 -7 -260 l0 -253 75 0 75 0 0 154 c0 85 4
166 9 179 11 28 56 47 112 47 l39 0 0 70 0 70 -34 0 c-49 0 -87 -16 -113 -48
l-23 -27 0 38 0 37 -63 0 c-35 0 -67 -3 -70 -7z"/>
<path d="M2197 7454 c-4 -4 -7 -121 -7 -261 l0 -253 75 0 75 0 -2 258 -3 257
-65 3 c-36 2 -69 0 -73 -4z"/>
<path d="M4238 7454 c-3 -3 32 -120 79 -260 l85 -255 86 3 86 3 82 250 c46
138 83 253 83 258 1 4 -33 7 -74 7 -61 0 -76 -3 -83 -17 -5 -10 -28 -87 -52
-172 -24 -85 -45 -150 -47 -145 -1 5 -23 78 -47 162 -25 84 -48 157 -51 162
-6 10 -137 14 -147 4z"/>
<path d="M4797 7454 c-4 -4 -7 -121 -7 -261 l0 -253 75 0 75 0 -2 258 -3 257
-65 3 c-36 2 -69 0 -73 -4z"/>
<path d="M6050 7200 l0 -260 75 0 75 0 0 168 c0 199 1 200 100 209 l61 6 -3
66 -3 66 -47 -1 c-55 0 -95 -19 -105 -48 -6 -18 -8 -16 -13 14 l-5 35 -67 3
-68 3 0 -261z"/>
<path d="M5846 6778 c-31 -44 -8 -98 42 -98 12 0 22 -3 22 -8 0 -18 -32 -51
-53 -54 -16 -2 -22 -10 -22 -28 0 -22 4 -25 29 -22 45 5 66 20 82 57 21 51 18
117 -7 149 -26 33 -71 35 -93 4z"/>
<path d="M1610 6745 l0 -45 110 0 110 0 0 -325 0 -325 45 0 45 0 0 325 0 325
110 0 110 0 0 45 0 45 -265 0 -265 0 0 -45z"/>
<path d="M4195 6777 c-3 -6 -4 -172 -3 -367 l3 -355 43 -3 42 -3 0 370 0 371
-40 0 c-23 0 -43 -5 -45 -13z"/>
<path d="M2670 6581 c-125 -26 -220 -143 -220 -271 0 -147 119 -270 263 -270
68 0 110 16 160 60 l37 32 0 -41 0 -41 40 0 40 0 0 260 0 260 -40 0 c-39 0
-40 -1 -40 -35 l0 -35 -45 34 c-55 42 -129 60 -195 47z m151 -106 c120 -79
114 -271 -11 -335 -46 -24 -129 -26 -168 -6 -92 48 -129 173 -81 273 47 96
169 129 260 68z"/>
<path d="M3780 6578 c-227 -41 -286 -379 -87 -502 39 -24 61 -30 125 -34 70
-4 82 -1 132 25 38 20 65 43 88 77 42 64 41 76 -5 76 -32 0 -41 -6 -60 -35
-54 -82 -174 -95 -254 -28 -35 30 -59 78 -59 118 l0 25 215 0 c244 0 225 -8
204 89 -16 78 -58 134 -121 164 -61 29 -115 37 -178 25z m136 -88 c29 -15 48
-34 65 -65 13 -24 21 -47 18 -50 -4 -3 -81 -4 -173 -3 l-166 3 21 43 c42 84
145 115 235 72z"/>
<path d="M4605 6580 c-89 -13 -181 -93 -205 -178 -13 -48 -13 -136 0 -184 17
-59 69 -120 129 -150 89 -46 212 -35 281 24 25 21 67 81 75 106 6 20 3 22 -34
22 -34 0 -43 -5 -58 -31 -71 -121 -282 -85 -311 53 -5 24 -7 46 -5 51 2 4 98
7 214 7 l209 0 0 48 c0 89 -64 184 -145 217 -40 16 -101 23 -150 15z m118 -84
c41 -17 75 -54 87 -94 l9 -32 -170 0 -170 0 6 23 c12 36 51 83 87 100 41 20
108 22 151 3z"/>
<path d="M5499 6580 c-81 -15 -134 -73 -132 -145 2 -75 52 -117 177 -151 93
-26 129 -77 91 -131 -19 -27 -76 -44 -116 -36 -33 6 -79 55 -79 84 0 16 -7 19
-45 19 -52 0 -56 -11 -26 -75 34 -74 85 -105 175 -105 110 0 186 68 186 167 0
78 -35 112 -154 148 -48 15 -96 35 -107 46 -27 27 -24 64 7 88 50 40 133 20
154 -35 8 -19 17 -24 44 -24 46 0 52 12 27 63 -33 68 -115 103 -202 87z"/>
<path d="M2140 6310 l0 -260 39 0 40 0 3 201 c3 197 3 201 27 220 18 15 39 19
92 19 l69 0 0 41 0 41 -76 -4 c-65 -3 -79 -7 -95 -27 l-19 -23 0 26 c0 24 -4
26 -40 26 l-40 0 0 -260z"/>
<path d="M3086 6528 c9 -24 47 -133 86 -243 38 -110 74 -208 80 -218 7 -14 19
-17 55 -15 l47 3 83 235 c110 309 105 280 51 280 l-44 0 -68 -206 c-37 -113
-70 -203 -73 -200 -3 3 -36 95 -72 203 l-66 198 -47 3 -47 3 15 -43z"/>
<path d="M5010 6309 l0 -260 43 3 42 3 5 203 c6 239 2 232 112 232 l68 0 0 40
0 40 -64 0 c-55 0 -69 -4 -95 -26 l-31 -26 0 26 c0 24 -4 26 -40 26 l-40 0 0
-261z"/>
<path d="M627 5910 c-114 -20 -214 -98 -265 -208 -34 -75 -42 -202 -18 -288
48 -169 208 -278 381 -259 120 13 214 75 265 177 40 82 39 88 -14 88 -40 0
-45 -3 -57 -32 -38 -95 -124 -151 -232 -150 -85 1 -138 24 -192 84 -58 65 -79
133 -73 237 12 196 170 313 350 259 54 -16 122 -79 144 -133 18 -43 21 -45 62
-45 48 0 51 8 27 68 -62 147 -216 229 -378 202z"/>
<path d="M1130 5535 l0 -365 40 0 40 0 0 170 c0 187 7 221 55 258 33 26 102
29 145 7 54 -28 60 -55 60 -255 l0 -180 45 0 45 0 0 188 c-1 194 -8 241 -47
284 -26 30 -92 58 -138 58 -44 0 -112 -27 -134 -53 -7 -10 -17 -17 -22 -17 -5
0 -9 61 -9 135 l0 135 -40 0 -40 0 0 -365z"/>
<path d="M2322 5884 c-42 -29 -24 -97 30 -109 21 -5 33 -1 52 19 32 31 33 56
3 84 -27 26 -54 28 -85 6z"/>
<path d="M4124 5863 c-27 -63 -264 -683 -264 -689 0 -3 21 -4 46 -2 l46 3 35
93 36 92 163 0 163 0 14 -27 c8 -16 25 -58 38 -95 l24 -68 47 0 c27 0 48 1 48
3 0 1 -63 164 -139 362 l-139 360 -51 3 c-51 3 -52 3 -67 -35z m135 -249 c34
-88 61 -163 61 -167 0 -9 -260 -9 -260 1 -1 19 125 341 131 334 4 -4 35 -79
68 -168z"/>
<path d="M6690 5765 c0 -74 -2 -135 -4 -135 -3 0 -28 15 -57 33 -47 29 -60 32
-128 32 -86 0 -134 -20 -188 -77 -99 -103 -99 -283 0 -386 53 -55 102 -76 182
-76 75 0 118 16 168 62 l27 26 0 -37 c0 -36 1 -37 40 -37 l40 0 0 365 0 365
-40 0 -40 0 0 -135z m-101 -165 c72 -36 106 -104 99 -196 -15 -181 -249 -239
-338 -82 -34 60 -34 146 0 207 46 82 155 115 239 71z"/>
<path d="M1850 5685 c-62 -19 -128 -78 -156 -139 -50 -107 -23 -251 60 -324
56 -49 101 -65 186 -65 62 -1 84 4 126 26 96 49 143 130 144 243 0 56 -5 81
-26 122 -61 123 -198 179 -334 137z m163 -79 c75 -31 124 -125 111 -212 -23
-155 -209 -217 -316 -105 -64 68 -73 162 -23 247 42 72 147 104 228 70z"/>
<path d="M2686 5685 c-207 -79 -234 -386 -44 -494 145 -83 339 -20 373 122 7
26 6 27 -33 27 -36 0 -43 -4 -63 -36 -40 -65 -131 -90 -206 -59 -50 21 -72 42
-94 90 -36 77 -16 188 42 242 76 69 202 54 258 -30 21 -32 30 -37 63 -37 43 0
48 12 22 63 -41 80 -106 119 -209 123 -45 3 -84 -1 -109 -11z"/>
<path d="M3266 5686 c-178 -66 -231 -318 -97 -457 75 -77 201 -100 295 -52 61
30 126 107 126 148 0 10 -10 15 -34 15 -29 0 -38 -6 -56 -35 -45 -73 -155 -97
-235 -52 -42 23 -85 91 -85 134 l0 23 216 0 217 0 -7 56 c-12 102 -52 166
-131 206 -51 27 -156 34 -209 14z m179 -85 c34 -20 75 -75 75 -102 0 -18 -11
-19 -165 -19 -184 0 -186 1 -145 67 46 76 152 101 235 54z"/>
<path d="M5411 5683 c-52 -18 -118 -81 -146 -138 -27 -57 -31 -151 -10 -216
33 -98 143 -179 242 -179 50 0 113 23 152 56 21 19 42 34 45 34 3 0 6 -16 6
-35 0 -34 1 -35 40 -35 l40 0 -2 258 -3 257 -37 3 c-36 3 -38 2 -38 -27 0 -36
-13 -46 -31 -24 -8 9 -36 27 -64 39 -59 28 -128 30 -194 7z m175 -79 c143 -68
143 -290 0 -355 -116 -52 -244 21 -254 146 -2 30 -1 70 2 90 8 42 58 103 101
121 41 18 110 17 151 -2z"/>
<path d="M6984 5681 c-61 -28 -84 -63 -84 -128 0 -78 35 -112 154 -148 48 -15
96 -35 107 -46 29 -29 24 -73 -12 -103 -58 -49 -144 -27 -173 44 -15 39 -18
41 -54 38 -36 -3 -37 -4 -34 -38 10 -104 118 -167 238 -141 105 24 163 117
129 207 -20 52 -43 68 -153 105 -47 16 -94 36 -104 45 -37 35 -16 88 41 104
50 13 97 -3 117 -41 12 -25 20 -29 55 -29 40 0 41 1 35 28 -24 98 -156 151
-262 103z"/>
<path d="M2327 5684 c-4 -4 -7 -121 -7 -261 l0 -253 45 0 45 0 -2 258 -3 257
-35 3 c-20 2 -39 0 -43 -4z"/>
<path d="M4529 5685 c-3 -3 24 -119 60 -258 l67 -252 51 -3 52 -3 11 43 c42
161 83 315 87 328 3 8 28 -72 57 -177 l51 -193 51 0 50 0 67 252 c36 139 63
256 61 260 -8 13 -72 9 -81 -4 -4 -7 -27 -98 -50 -202 -23 -104 -44 -191 -46
-192 -2 -2 -28 87 -58 199 l-54 202 -44 0 -44 0 -49 -190 c-27 -104 -52 -197
-55 -205 -7 -18 -2 -38 -56 205 l-43 190 -40 3 c-22 2 -42 0 -45 -3z"/>
<path d="M5927 5684 c-4 -4 -7 -121 -7 -261 l0 -253 45 0 45 0 0 198 c0 236
-3 229 105 234 l70 3 0 40 c0 35 -3 40 -24 43 -46 7 -113 -9 -137 -33 l-23
-23 -3 27 c-2 21 -9 27 -33 29 -17 2 -34 0 -38 -4z"/>
<path d="M3607 4839 c-287 -33 -586 -150 -807 -317 -339 -256 -564 -616 -647
-1037 -25 -126 -25 -461 0 -593 153 -817 878 -1395 1706 -1359 252 11 447 62
671 174 178 89 318 192 455 335 158 165 271 340 354 550 190 482 130 1056
-157 1498 -341 526 -961 821 -1575 749z m485 -208 c578 -124 1016 -565 1144
-1151 15 -68 19 -126 19 -295 -1 -192 -3 -220 -27 -322 -120 -505 -484 -906
-972 -1068 -447 -148 -902 -87 -1297 176 -124 83 -305 263 -388 388 -354 533
-338 1203 42 1717 216 292 579 508 952 569 128 21 398 13 527 -14z"/>
<path d="M3670 3920 c-198 -19 -380 -79 -545 -179 l-60 -36 -210 -5 -209 -5
64 -70 c36 -39 76 -82 89 -97 l24 -27 -51 -56 c-166 -181 -201 -445 -89 -660
64 -123 195 -229 347 -281 82 -28 243 -26 331 4 73 25 169 79 211 119 14 14
30 24 36 22 5 -2 46 -46 93 -96 46 -51 86 -93 89 -92 3 0 43 43 90 95 46 52
88 94 92 94 4 0 30 -16 57 -35 127 -91 295 -126 453 -94 92 19 210 83 281 155
112 111 167 245 167 404 0 140 -38 248 -126 362 -24 31 -44 59 -44 63 0 4 38
48 85 98 l85 92 -205 3 -205 2 -53 34 c-219 140 -526 211 -797 186z m293 -194
c48 -8 124 -27 169 -42 l81 -27 -79 -41 c-111 -57 -237 -183 -286 -286 -20
-41 -40 -93 -44 -115 -10 -62 -16 -63 -31 -4 -44 173 -176 330 -348 414 -30
15 -53 31 -50 35 6 10 146 50 229 65 96 18 252 18 359 1z m-583 -302 c79 -37
150 -107 188 -183 24 -50 27 -67 27 -161 0 -88 -4 -113 -23 -154 -85 -185
-284 -276 -473 -216 -266 84 -357 420 -168 625 83 90 172 126 299 122 70 -2
97 -8 150 -33z m1152 -2 c143 -70 234 -234 214 -385 -13 -95 -45 -157 -115
-228 -86 -86 -150 -113 -271 -113 -112 0 -180 27 -258 99 -131 121 -165 302
-86 457 45 89 105 144 203 185 48 20 70 23 151 21 85 -3 103 -7 162 -36z"/>
<path d="M3135 3261 c-86 -39 -139 -143 -116 -228 32 -119 148 -186 259 -149
108 36 166 152 130 257 -18 54 -48 87 -102 114 -59 30 -115 32 -171 6z"/>
<path d="M4269 3252 c-94 -49 -133 -162 -90 -257 58 -127 218 -160 325 -66 72
63 79 197 14 276 -64 77 -158 95 -249 47z"/>
<path d="M1024 4348 c18 -154 112 -451 199 -623 50 -101 127 -206 206 -286 73
-72 192 -159 218 -159 19 0 16 50 -11 181 -34 162 -76 282 -151 434 -70 142
-135 235 -235 335 -63 64 -209 180 -225 180 -4 0 -4 -28 -1 -62z"/>
<path d="M6459 4345 c-193 -144 -328 -328 -429 -584 -69 -173 -136 -481 -105
-481 19 0 123 66 181 116 187 160 356 498 429 857 27 133 29 157 17 157 -4 0
-46 -29 -93 -65z"/>
<path d="M1665 3994 c-8 -98 6 -291 31 -412 39 -195 121 -358 233 -465 64 -61
65 -62 72 -37 11 39 10 247 -2 340 -30 243 -134 474 -277 614 l-50 48 -7 -88z"/>
<path d="M5838 4032 c-156 -174 -248 -410 -266 -689 -9 -126 -2 -279 11 -277
39 6 139 128 193 236 41 81 79 210 99 333 20 116 29 325 18 394 l-8 54 -47
-51z"/>
<path d="M900 3662 c0 -26 65 -231 99 -316 114 -278 263 -492 430 -615 73 -54
217 -128 229 -117 9 10 -34 175 -73 276 -110 287 -273 511 -483 660 -91 65
-202 126 -202 112z"/>
<path d="M6600 3628 c-237 -128 -414 -320 -545 -593 -56 -117 -121 -306 -132
-382 -6 -44 -5 -45 18 -38 96 30 267 150 352 248 146 167 295 459 363 711 13
50 22 91 21 92 -1 2 -36 -15 -77 -38z"/>
<path d="M1570 3186 c0 -28 63 -192 107 -281 124 -249 270 -408 454 -495 94
-44 100 -42 83 23 -31 118 -127 318 -202 420 -96 131 -229 245 -363 313 -78
39 -79 39 -79 20z"/>
<path d="M5925 3164 c-247 -127 -439 -364 -540 -667 -20 -60 -34 -111 -31
-114 9 -10 99 27 168 68 180 106 356 354 457 642 33 93 36 107 24 107 -5 0
-39 -17 -78 -36z"/>
<path d="M774 2893 c72 -142 230 -347 372 -484 138 -133 257 -207 409 -258 95
-31 205 -50 205 -34 0 5 -23 49 -51 98 -157 273 -381 496 -617 614 -69 35
-243 95 -305 106 l-38 6 25 -48z"/>
<path d="M6730 2919 c-226 -59 -407 -164 -576 -333 -113 -114 -203 -228 -274
-349 -63 -109 -69 -127 -37 -127 53 0 217 50 298 90 150 76 257 162 400 323
110 124 279 370 279 406 0 14 0 14 -90 -10z"/>
<path d="M1650 2535 c0 -4 21 -42 46 -85 140 -236 336 -429 524 -519 84 -40
233 -81 247 -68 18 19 -99 201 -211 329 -125 143 -303 262 -476 316 -81 26
-130 36 -130 27z"/>
<path d="M5835 2521 c-184 -55 -325 -140 -466 -280 -98 -99 -162 -182 -221
-286 -56 -100 -56 -98 4 -90 106 15 221 63 333 138 129 88 315 302 413 476 39
70 37 71 -63 42z"/>
<path d="M1230 2055 c-8 -2 -37 -7 -65 -10 l-50 -7 43 -38 c114 -102 395 -260
560 -314 111 -37 221 -56 325 -56 90 0 222 21 239 38 10 10 -96 100 -192 162
-121 78 -302 159 -427 191 -100 26 -142 31 -268 34 -82 2 -157 2 -165 0z"/>
<path d="M6015 2045 c-181 -34 -372 -114 -550 -232 -94 -63 -184 -137 -175
-146 13 -14 169 -37 249 -37 160 0 312 40 506 135 128 62 260 143 353 217 l65
52 -29 9 c-56 16 -333 18 -419 2z"/>
<path d="M2378 1792 c-32 -2 -58 -6 -58 -10 0 -16 124 -96 235 -152 132 -67
246 -100 339 -100 75 0 136 10 136 21 0 16 -134 108 -215 148 -146 71 -285
101 -437 93z"/>
<path d="M5060 1788 c-145 -11 -312 -79 -460 -187 -41 -30 -57 -48 -51 -54 18
-18 171 -20 249 -3 126 26 334 129 431 212 l36 32 -60 3 c-34 2 -99 1 -145 -3z"/>
<path d="M2000 1541 c-47 -10 -110 -29 -140 -41 -74 -29 -170 -81 -170 -91 0
-5 44 -22 98 -39 313 -97 657 -130 867 -82 99 22 187 54 192 69 4 12 -124 84
-211 118 -141 55 -250 77 -406 81 -116 3 -162 0 -230 -15z"/>
<path d="M5189 1544 c-145 -26 -323 -92 -428 -159 l-45 -28 26 -13 c51 -26
198 -63 299 -74 194 -21 498 21 767 108 45 14 82 29 82 33 0 9 -153 84 -215
104 -136 45 -333 57 -486 29z"/>
<path d="M3184 1460 c-72 -19 -167 -61 -179 -79 -11 -19 157 -51 271 -51 39 0
96 4 125 10 57 11 199 75 199 90 0 5 -19 14 -41 20 -128 35 -268 38 -375 10z"/>
<path d="M4100 1470 c-73 -15 -120 -30 -120 -39 0 -13 68 -51 130 -73 104 -36
323 -34 437 6 l37 13 -44 26 c-84 48 -166 69 -285 73 -60 2 -130 -1 -155 -6z"/>
<path d="M3743 1436 c-76 -34 -69 -139 12 -166 44 -15 80 -4 110 32 32 38 32
70 -2 108 -33 36 -76 45 -120 26z"/>
<path d="M3016 1099 c-72 -17 -126 -74 -126 -134 0 -24 2 -25 60 -25 33 0 60
4 60 9 0 33 72 55 98 29 15 -15 15 -59 -1 -78 -7 -8 -61 -60 -120 -114 -103
-94 -108 -101 -105 -135 l3 -36 188 -3 187 -2 0 60 0 60 -81 0 -80 0 74 73
c66 63 76 77 82 119 8 51 1 80 -26 119 -35 49 -134 77 -213 58z"/>
<path d="M3478 1096 c-113 -31 -177 -109 -186 -225 -8 -124 59 -223 174 -257
132 -38 270 21 318 138 23 55 21 162 -5 214 -23 48 -77 100 -123 119 -50 21
-127 25 -178 11z m165 -156 c22 -25 27 -39 27 -85 0 -46 -4 -59 -31 -89 -50
-58 -135 -58 -189 -1 -28 29 -38 102 -20 145 34 82 151 99 213 30z"/>
<path d="M3956 1099 c-70 -17 -126 -78 -126 -138 0 -19 6 -21 59 -21 52 0 61
3 75 25 18 27 63 34 84 13 19 -19 14 -65 -10 -91 -13 -13 -67 -64 -121 -113
-92 -83 -98 -90 -95 -124 l3 -35 188 -3 187 -2 0 60 0 60 -80 0 -80 0 74 73
c58 56 76 80 81 110 17 93 -32 166 -125 186 -58 12 -60 12 -114 0z"/>
<path d="M4267 1033 c-4 -32 -9 -101 -12 -153 -3 -52 -8 -105 -11 -117 -4 -22
-1 -23 56 -23 47 0 68 5 91 22 66 49 144 15 144 -62 0 -84 -91 -116 -145 -52
-25 30 -31 32 -88 32 -70 0 -73 -5 -46 -68 23 -57 62 -91 123 -109 114 -33
224 9 267 100 49 106 15 224 -78 273 -36 18 -126 18 -162 -1 -16 -9 -30 -14
-32 -12 -2 2 -1 27 3 55 l6 52 133 0 134 0 0 60 0 60 -189 0 -188 0 -6 -57z"/>
</g>
</svg>
